<svg width="124" height="30" viewBox="0 0 124 30" fill="none" xmlns="http://www.w3.org/2000/svg">
<rect x="1.13433" y="0.880618" width="122.03" height="28.4179" rx="14.209" stroke="url(#paint0_linear_23_1137)" stroke-width="0.835821"/>
<path d="M30.6743 12.9811H32.7739C32.979 12.9811 33.1573 12.9499 33.3088 12.8874C33.4604 12.8161 33.5852 12.7225 33.6833 12.6066C33.7903 12.4907 33.8705 12.3614 33.924 12.2188C33.9775 12.0761 34.0042 11.9335 34.0042 11.7909C34.0042 11.6393 33.9775 11.4922 33.924 11.3495C33.8705 11.2069 33.7903 11.0821 33.6833 10.9751C33.5852 10.8592 33.4604 10.77 33.3088 10.7076C33.1573 10.6363 32.979 10.6006 32.7739 10.6006H30.6743V12.9811ZM34.031 18.0896L31.9047 14.8533H30.6743V18.0896H28.6015V10.0657C28.6015 9.17418 29.0473 8.7284 29.9388 8.7284H32.9745C33.5005 8.7284 33.9597 8.81756 34.3519 8.99587C34.7442 9.16526 35.0696 9.39706 35.3282 9.69127C35.5956 9.97656 35.7962 10.302 35.93 10.6675C36.0637 11.033 36.1306 11.4075 36.1306 11.7909C36.1306 12.0851 36.0905 12.3793 36.0102 12.6735C35.93 12.9677 35.8096 13.2441 35.6491 13.5026C35.4887 13.7522 35.2836 13.9796 35.034 14.1846C34.7933 14.3808 34.5124 14.5368 34.1915 14.6527L36.4382 18.0896H34.031ZM42.3359 14.0643C42.2111 13.7255 42.0016 13.4491 41.7074 13.2352C41.4221 13.0123 41.0922 12.9008 40.7178 12.9008C40.3522 12.9008 40.0224 13.0123 39.7282 13.2352C39.4429 13.4491 39.2378 13.7255 39.113 14.0643H42.3359ZM39.0862 15.3882C39.2111 15.7538 39.4295 16.0569 39.7415 16.2976C40.0536 16.5294 40.4057 16.6453 40.798 16.6453C41.0833 16.6453 41.3463 16.5784 41.587 16.4447C41.8367 16.3021 42.0417 16.1148 42.2022 15.883L43.9674 16.5249C43.6465 17.0866 43.2052 17.5368 42.6435 17.8756C42.0907 18.2144 41.4711 18.3838 40.7846 18.3838C40.2765 18.3838 39.7995 18.2902 39.3537 18.103C38.9079 17.9157 38.5157 17.6572 38.1769 17.3273C37.847 16.9975 37.584 16.6141 37.3879 16.1772C37.2006 15.7404 37.107 15.2723 37.107 14.7731C37.107 14.2738 37.2006 13.8057 37.3879 13.3689C37.584 12.932 37.847 12.5487 38.1769 12.2188C38.5157 11.8889 38.9079 11.6304 39.3537 11.4432C39.7995 11.2559 40.2765 11.1623 40.7846 11.1623C41.2572 11.1623 41.7029 11.247 42.1219 11.4164C42.5499 11.5769 42.9243 11.8042 43.2453 12.0984C43.5752 12.3837 43.8426 12.7225 44.0477 13.1148C44.2527 13.4982 44.382 13.9172 44.4355 14.3719C44.4712 14.6839 44.3954 14.9335 44.2082 15.1208C44.0298 15.2991 43.7579 15.3882 43.3924 15.3882H39.0862ZM46.881 14.7597C46.881 15.0093 46.9256 15.25 47.0147 15.4818C47.1128 15.7047 47.2421 15.9009 47.4026 16.0703C47.563 16.2396 47.7503 16.3734 47.9642 16.4715C48.1871 16.5695 48.4189 16.6186 48.6596 16.6186C48.9003 16.6186 49.1277 16.5695 49.3417 16.4715C49.5645 16.3734 49.7562 16.2396 49.9167 16.0703C50.0772 15.9009 50.202 15.7047 50.2912 15.4818C50.3892 15.25 50.4383 15.0093 50.4383 14.7597C50.4383 14.519 50.3892 14.2872 50.2912 14.0643C50.202 13.8414 50.0772 13.6453 49.9167 13.4759C49.7562 13.3065 49.5645 13.1727 49.3417 13.0747C49.1277 12.9766 48.9003 12.9276 48.6596 12.9276C48.4189 12.9276 48.1871 12.9766 47.9642 13.0747C47.7503 13.1727 47.563 13.3065 47.4026 13.4759C47.2421 13.6453 47.1128 13.8414 47.0147 14.0643C46.9256 14.2872 46.881 14.519 46.881 14.7597ZM44.982 14.7731C44.982 14.2738 45.0667 13.8057 45.2361 13.3689C45.4144 12.932 45.6507 12.5487 45.9449 12.2188C46.2391 11.8889 46.5868 11.6304 46.988 11.4432C47.3892 11.2559 47.8171 11.1623 48.2718 11.1623C48.6641 11.1623 49.0341 11.2336 49.3818 11.3763C49.7295 11.51 50.046 11.7017 50.3313 11.9513V11.403H52.3372V18.0896H50.3313V17.5948C50.046 17.8444 49.7295 18.0361 49.3818 18.1698C49.0341 18.3125 48.6641 18.3838 48.2718 18.3838C47.8171 18.3838 47.3892 18.2902 46.988 18.103C46.5868 17.9157 46.2391 17.6572 45.9449 17.3273C45.6507 16.9975 45.4144 16.6141 45.2361 16.1772C45.0667 15.7404 44.982 15.2723 44.982 14.7731ZM55.1086 14.7597C55.1086 15.0093 55.1532 15.25 55.2424 15.4818C55.3404 15.7047 55.4697 15.9009 55.6302 16.0703C55.7906 16.2396 55.9779 16.3734 56.1918 16.4715C56.4147 16.5695 56.6465 16.6186 56.8872 16.6186C57.128 16.6186 57.3553 16.5695 57.5693 16.4715C57.7922 16.3734 57.9838 16.2396 58.1443 16.0703C58.3048 15.9009 58.4296 15.7047 58.5188 15.4818C58.6168 15.25 58.6659 15.0093 58.6659 14.7597C58.6659 14.519 58.6168 14.2872 58.5188 14.0643C58.4296 13.8414 58.3048 13.6453 58.1443 13.4759C57.9838 13.3065 57.7922 13.1727 57.5693 13.0747C57.3553 12.9766 57.128 12.9276 56.8872 12.9276C56.6465 12.9276 56.4147 12.9766 56.1918 13.0747C55.9779 13.1727 55.7906 13.3065 55.6302 13.4759C55.4697 13.6453 55.3404 13.8414 55.2424 14.0643C55.1532 14.2872 55.1086 14.519 55.1086 14.7597ZM53.2096 14.7731C53.2096 14.2738 53.2943 13.8057 53.4637 13.3689C53.642 12.932 53.8783 12.5487 54.1725 12.2188C54.4667 11.8889 54.8144 11.6304 55.2156 11.4432C55.6168 11.2559 56.0447 11.1623 56.4994 11.1623C56.8917 11.1623 57.2617 11.2336 57.6094 11.3763C57.9571 11.51 58.2736 11.7017 58.5589 11.9513V8.7284H60.5649V18.0896H58.5589V17.5948C58.2736 17.8444 57.9571 18.0361 57.6094 18.1698C57.2617 18.3125 56.8917 18.3838 56.4994 18.3838C56.0447 18.3838 55.6168 18.2902 55.2156 18.103C54.8144 17.9157 54.4667 17.6572 54.1725 17.3273C53.8783 16.9975 53.642 16.6141 53.4637 16.1772C53.2943 15.7404 53.2096 15.2723 53.2096 14.7731ZM69.0625 14.4655C69.0625 14.0732 68.9377 13.7433 68.6881 13.4759C68.4385 13.1995 68.1309 13.0613 67.7654 13.0613C67.3909 13.0613 67.0789 13.1995 66.8292 13.4759C66.5796 13.7433 66.4548 14.0732 66.4548 14.4655V18.0896H64.4488V11.403H66.4548V11.8978C66.7044 11.675 66.9853 11.5011 67.2973 11.3763C67.6093 11.2515 67.9392 11.1891 68.2869 11.1891C68.7327 11.1891 69.1428 11.2916 69.5172 11.4966C69.8917 11.7017 70.2082 11.9736 70.4667 12.3124C70.7966 11.9647 71.1666 11.6928 71.5767 11.4966C71.9868 11.2916 72.4192 11.1891 72.8739 11.1891C73.2662 11.1891 73.6317 11.2648 73.9705 11.4164C74.3093 11.568 74.6035 11.7775 74.8531 12.0449C75.1117 12.3124 75.3123 12.6244 75.4549 12.9811C75.6065 13.3288 75.6822 13.7032 75.6822 14.1044V18.0896H73.6763V14.4655C73.6763 14.0732 73.5515 13.7433 73.3018 13.4759C73.0522 13.1995 72.7446 13.0613 72.3791 13.0613C72.0046 13.0613 71.6926 13.1995 71.443 13.4759C71.1933 13.7433 71.0685 14.0732 71.0685 14.4655V18.0896H69.0625V14.4655ZM76.5473 14.7731C76.5473 14.2738 76.6409 13.8057 76.8282 13.3689C77.0243 12.932 77.2873 12.5487 77.6172 12.2188C77.956 11.8889 78.3482 11.6304 78.794 11.4432C79.2398 11.2559 79.7168 11.1623 80.2249 11.1623C80.7331 11.1623 81.2101 11.2559 81.6559 11.4432C82.1016 11.6304 82.4895 11.8889 82.8193 12.2188C83.1581 12.5487 83.4211 12.932 83.6083 13.3689C83.8045 13.8057 83.9025 14.2738 83.9025 14.7731C83.9025 15.2723 83.8045 15.7404 83.6083 16.1772C83.4211 16.6141 83.1581 16.9975 82.8193 17.3273C82.4895 17.6572 82.1016 17.9157 81.6559 18.103C81.2101 18.2902 80.7331 18.3838 80.2249 18.3838C79.7168 18.3838 79.2398 18.2902 78.794 18.103C78.3482 17.9157 77.956 17.6572 77.6172 17.3273C77.2873 16.9975 77.0243 16.6141 76.8282 16.1772C76.6409 15.7404 76.5473 15.2723 76.5473 14.7731ZM78.4463 14.7597C78.4463 15.0093 78.4909 15.25 78.58 15.4818C78.6781 15.7047 78.8074 15.9009 78.9679 16.0703C79.1283 16.2396 79.3156 16.3734 79.5295 16.4715C79.7524 16.5695 79.9842 16.6186 80.2249 16.6186C80.4656 16.6186 80.693 16.5695 80.907 16.4715C81.1298 16.3734 81.3215 16.2396 81.482 16.0703C81.6425 15.9009 81.7673 15.7047 81.8565 15.4818C81.9545 15.25 82.0036 15.0093 82.0036 14.7597C82.0036 14.519 81.9545 14.2872 81.8565 14.0643C81.7673 13.8414 81.6425 13.6453 81.482 13.4759C81.3215 13.3065 81.1298 13.1727 80.907 13.0747C80.693 12.9766 80.4656 12.9276 80.2249 12.9276C79.9842 12.9276 79.7524 12.9766 79.5295 13.0747C79.3156 13.1727 79.1283 13.3065 78.9679 13.4759C78.8074 13.6453 78.6781 13.8414 78.58 14.0643C78.4909 14.2872 78.4463 14.519 78.4463 14.7597ZM88.5543 13.0613C87.9748 13.0613 87.5335 13.2218 87.2304 13.5427C86.9272 13.8637 86.7757 14.2916 86.7757 14.8266V18.0896H84.7697V11.403H86.7757V12.1386C86.9629 11.8265 87.2259 11.5903 87.5647 11.4298C87.9035 11.2693 88.2334 11.1891 88.5543 11.1891V13.0613ZM93.987 14.0643C93.8622 13.7255 93.6527 13.4491 93.3585 13.2352C93.0732 13.0123 92.7433 12.9008 92.3689 12.9008C92.0034 12.9008 91.6735 13.0123 91.3793 13.2352C91.094 13.4491 90.8889 13.7255 90.7641 14.0643H93.987ZM90.7374 15.3882C90.8622 15.7538 91.0806 16.0569 91.3927 16.2976C91.7047 16.5294 92.0568 16.6453 92.4491 16.6453C92.7344 16.6453 92.9974 16.5784 93.2381 16.4447C93.4878 16.3021 93.6928 16.1148 93.8533 15.883L95.6186 16.5249C95.2976 17.0866 94.8563 17.5368 94.2946 17.8756C93.7419 18.2144 93.1222 18.3838 92.4358 18.3838C91.9276 18.3838 91.4506 18.2902 91.0048 18.103C90.5591 17.9157 90.1668 17.6572 89.828 17.3273C89.4981 16.9975 89.2351 16.6141 89.039 16.1772C88.8518 15.7404 88.7581 15.2723 88.7581 14.7731C88.7581 14.2738 88.8518 13.8057 89.039 13.3689C89.2351 12.932 89.4981 12.5487 89.828 12.2188C90.1668 11.8889 90.5591 11.6304 91.0048 11.4432C91.4506 11.2559 91.9276 11.1623 92.4358 11.1623C92.9083 11.1623 93.354 11.247 93.7731 11.4164C94.201 11.5769 94.5755 11.8042 94.8964 12.0984C95.2263 12.3837 95.4937 12.7225 95.6988 13.1148C95.9039 13.4982 96.0331 13.9172 96.0866 14.3719C96.1223 14.6839 96.0465 14.9335 95.8593 15.1208C95.681 15.2991 95.409 15.3882 95.0435 15.3882H90.7374Z" fill="white"/>
<defs>
<linearGradient id="paint0_linear_23_1137" x1="62.1493" y1="0.462708" x2="62.1493" y2="29.7164" gradientUnits="userSpaceOnUse">
<stop stop-color="#D6A76F"/>
<stop offset="1" stop-color="#FFF8F0"/>
</linearGradient>
</defs>
</svg>
